<svg width="186" height="175" viewBox="0 0 186 175" fill="none" xmlns="http://www.w3.org/2000/svg">
<g clip-path="url(#clip0_265_1897)">
<path d="M34.25 20.26C34.25 20.26 32.37 19.27 28.9 18.97C28.9 18.97 22.66 18.28 21.52 17.89C20.38 17.5 16.39 15.75 18.49 11.74C20.59 7.73001 27.28 3.82001 27.28 3.82001C27.28 3.82001 29.4 2.49001 28.03 1.12001C26.66 -0.249991 23.22 1.01001 21.97 1.63001C18.82 3.10001 15.03 5.44001 13 9.39001C13 9.39001 9.69004 16.57 13.63 21.3C13.63 21.3 17.38 25.94 24.19 26.87C29.86 27.65 32.91 27.34 32.91 27.34L35.85 24.4L34.26 20.25L34.25 20.26Z" fill="url(#paint0_linear_265_1897)"/>
<path d="M160.97 45.66C160.97 45.66 155.1 37.17 156.88 34.97C158.04 33.54 159.86 34.22 161.23 34.68C161.23 34.68 168.69 37.33 175.06 37.72C175.06 37.72 180.51 38.06 182.96 33.84C185.41 29.62 186.26 22.8 182.87 14.79L181.93 12.45C181.93 12.45 180.6 9.93001 178.4 10.25C176.2 10.57 174.27 13.19 174.27 13.19C174.27 13.19 173.12 14.21 174.58 16.65C175.8 19.2 176.71 22.84 176.64 25.29C176.64 25.29 176.74 30.99 173.81 32.18C173.81 32.18 169.79 33.68 165.17 32.77C160.55 31.86 158.28 31.41 158.28 31.41C158.28 31.41 153.14 30.12 151.32 34.24C149.5 38.36 150.31 41.55 152.44 45.85C153.7 48.44 157.31 53.46 157.31 53.46C157.31 53.46 159.82 54.34 160.83 53.19C161.84 52.04 161.84 48.87 160.97 45.66Z" fill="url(#paint1_linear_265_1897)"/>
<path d="M140.37 120.23C137.32 121.35 26.0702 172.16 17.6202 173.82C17.5602 173.83 17.4902 173.85 17.4202 173.85C15.9102 173.98 10.9202 171.92 6.67016 167.67C2.42016 163.42 0.360163 158.44 0.490163 156.93C0.490163 156.86 0.500163 156.79 0.520163 156.73C2.18016 148.28 52.9902 37.04 54.1102 33.98C55.2302 30.9 57.1502 29.16 57.1502 29.16L145.18 117.19C145.18 117.19 143.44 119.11 140.36 120.23H140.37Z" fill="url(#paint2_linear_265_1897)"/>
<path d="M145.19 117.18C141.48 120.9 126.93 112.7 109.49 97.88C107.11 95.87 104.68 93.73 102.21 91.47C98.9601 88.5 95.6501 85.34 92.3301 82.02C90.2201 79.91 88.1801 77.81 86.2201 75.73C84.2001 73.6 82.2701 71.48 80.4201 69.4C63.1401 50 53.1401 33.19 57.1701 29.16C60.1501 26.18 70.0901 30.86 82.9101 40.46C85.4201 42.34 88.0401 44.41 90.7401 46.66C96.8801 51.75 103.43 57.72 110.03 64.32C116.02 70.31 121.49 76.26 126.25 81.9C128.63 84.7 130.82 87.42 132.82 90.04C143.14 103.53 148.28 114.09 145.19 117.18Z" fill="url(#paint3_linear_265_1897)"/>
<path d="M115.62 131.3C115.42 131.39 115.21 131.48 115 131.58C110.76 133.48 106.18 135.55 101.37 137.71C88.4699 132.34 75.0899 123.39 63.0199 111.33C50.9599 99.27 41.9999 85.88 36.6299 72.98C38.7899 68.17 40.8499 63.58 42.7699 59.35C42.8599 59.14 42.9499 58.95 43.0399 58.76C48.8599 73.02 58.9299 88.11 72.5899 101.77C86.2399 115.42 101.34 125.5 115.61 131.31L115.62 131.3Z" fill="url(#paint4_linear_265_1897)"/>
<path d="M72.08 150.79C68.04 152.59 64.02 154.37 60.12 156.09C50.87 153.25 41.83 147.92 34.13 140.22C26.43 132.52 21.1 123.47 18.25 114.21C19.97 110.31 21.74 106.3 23.55 102.27C27.11 112.63 33.47 122.95 42.44 131.92C51.41 140.89 61.72 147.24 72.08 150.8V150.79Z" fill="url(#paint5_linear_265_1897)"/>
<path d="M35.1398 166.94C31.0098 168.69 27.4298 170.19 24.5498 171.33C19.2698 170.09 14.4798 167.57 10.6298 163.71C6.77977 159.85 4.24977 155.07 3.00977 149.78C4.17977 146.84 5.71977 143.14 7.52977 138.88C9.54977 145.36 13.0998 151.41 18.1898 156.49C23.2798 161.57 28.9198 164.88 35.1498 166.93L35.1398 166.94Z" fill="url(#paint6_linear_265_1897)"/>
<path d="M160.97 45.66C160.97 45.66 161.79 50.2 158.87 52.51C156.78 54.17 151.95 56.54 140.2 45.77L137.89 43.46C137.89 43.46 136.3 41.69 133.88 41.22C132.14 40.89 129.51 40.72 128.16 40.65C127.44 40.61 126.72 40.76 126.09 41.11C125.17 41.61 124 42.58 123.62 44.3C122.97 47.28 122.78 67.98 122.78 67.98C122.78 67.98 122.69 69.84 124.04 69.98C125.39 70.12 130.15 70.4 130.15 70.4C130.15 70.4 132.01 70.68 132.25 68.4C132.49 66.12 132.86 46.44 132.86 46.44C132.86 46.44 133.1 43.14 135.24 44.34C136.92 45.29 144.62 54.7 151.57 56.43C158.52 58.16 160.37 56.23 161.54 55.25C162.71 54.27 163.64 50.73 160.98 45.65L160.97 45.66Z" fill="url(#paint7_linear_265_1897)"/>
<path d="M181.62 79.7L181.53 84.45C181.53 84.51 181.51 86.95 178.36 86.97C175.17 86.99 153.49 85.5 139.71 88.37C137.48 88.83 135.15 89.41 132.82 90.04C122.74 92.79 112.56 96.68 109.49 97.88C107.11 95.87 104.68 93.73 102.21 91.47C102.21 91.47 111.06 86.14 126.25 81.9C131.59 80.4 137.72 79.04 144.53 78.09C165.72 75.43 177.93 76.85 177.93 76.85C177.93 76.85 181.63 77.08 181.62 79.7Z" fill="url(#paint8_linear_265_1897)"/>
<path d="M90.9902 44.5C90.9302 45.13 90.8402 45.86 90.7402 46.66C89.5902 55.96 86.2202 75.73 86.2202 75.73C84.2002 73.6 82.2702 71.48 80.4202 69.4C81.9202 60.2 82.7802 49.45 82.9102 40.46C83.0102 33.81 82.7102 28.13 81.9902 24.78C80.2202 16.57 71.0802 12.19 71.0802 12.19C68.8302 10.87 68.4202 8.97003 68.4202 8.97003C68.4202 8.97003 67.9202 7.14003 69.2202 4.26003C70.7102 0.95003 74.2002 2.44003 74.2002 2.44003C82.6002 6.36003 87.0302 12.66 89.3102 19.79C91.5902 26.92 91.7802 36.62 90.9902 44.5Z" fill="url(#paint9_linear_265_1897)"/>
<path d="M29.26 65.67C29.26 65.67 37.61 59.19 39.89 52.99C42.17 46.79 36.11 46.7 34.76 46.46C33.41 46.22 17.46 44.64 17.46 44.64L15.73 42.36C15.73 42.36 26.13 43.15 31.12 43.39C36.11 43.63 40.77 43.53 43.24 47.03C45.71 50.53 44.62 55.25 43.7 57.3C42.78 59.35 35.19 67.86 35.19 67.86C35.19 67.86 33.95 69.24 33.03 69.46C32.11 69.68 30.06 69.14 29.28 68.7C28.5 68.26 28.09 66.65 29.26 65.68V65.67Z" fill="url(#paint10_linear_265_1897)"/>
<path d="M17.4601 44.64C17.4601 44.64 15.8901 40.22 18.4701 38.26C21.0501 36.3 32.7401 30.43 34.2801 29.03C35.8201 27.63 38.5501 22.95 34.2501 20.25C34.2501 20.25 35.6501 23.05 34.6001 24.66C33.5501 26.27 30.6801 27.81 24.9801 30.64C19.2801 33.47 17.6701 33.96 15.9301 34.93C13.2501 36.42 13.4101 39.86 13.6301 40.8C13.9801 42.34 14.6301 44.2 17.4601 44.63V44.64Z" fill="url(#paint11_linear_265_1897)"/>
<path d="M154.889 21.031L151.991 15.3469C151.49 14.3628 150.285 13.9717 149.301 14.4733L143.617 17.3707C142.633 17.8724 142.242 19.0768 142.743 20.0609L145.641 25.745C146.143 26.7291 147.347 27.1202 148.331 26.6186L154.015 23.7211C154.999 23.2195 155.39 22.0151 154.889 21.031Z" fill="url(#paint12_linear_265_1897)"/>
<path d="M102.379 16.3982L98.405 11.4073C97.717 10.5432 96.4587 10.4005 95.5946 11.0886L90.6037 15.0628C89.7396 15.7509 89.5969 17.0091 90.2849 17.8732L94.2592 22.8642C94.9473 23.7283 96.2055 23.871 97.0696 23.1829L102.061 19.2086C102.925 18.5206 103.067 17.2623 102.379 16.3982Z" fill="url(#paint13_linear_265_1897)"/>
<path d="M74.1449 20.513L70.1707 15.5221C69.4826 14.658 68.2243 14.5153 67.3602 15.2034L62.3693 19.1776C61.5052 19.8657 61.3625 21.124 62.0506 21.988L66.0248 26.979C66.7129 27.8431 67.9712 27.9858 68.8352 27.2977L73.8262 23.3235C74.6903 22.6354 74.833 21.3771 74.1449 20.513Z" fill="url(#paint14_linear_265_1897)"/>
<path d="M159.658 115.182L157.542 109.163C157.176 108.121 156.034 107.573 154.992 107.939L148.973 110.055C147.931 110.422 147.383 111.563 147.75 112.606L149.866 118.624C150.232 119.666 151.374 120.214 152.416 119.848L158.435 117.732C159.477 117.365 160.025 116.224 159.658 115.182Z" fill="url(#paint15_linear_265_1897)"/>
<path d="M127.982 140.551L124.202 135.411C123.548 134.521 122.296 134.33 121.406 134.985L116.266 138.765C115.377 139.419 115.186 140.671 115.84 141.561L119.62 146.701C120.274 147.59 121.526 147.781 122.416 147.127L127.556 143.347C128.446 142.693 128.637 141.441 127.982 140.551Z" fill="url(#paint16_linear_265_1897)"/>
<path d="M160.217 137.806L154.054 136.154C152.987 135.869 151.89 136.502 151.604 137.569L149.953 143.731C149.667 144.798 150.3 145.895 151.367 146.181L157.53 147.832C158.597 148.118 159.694 147.485 159.979 146.418L161.631 140.255C161.917 139.188 161.283 138.092 160.217 137.806Z" fill="url(#paint17_linear_265_1897)"/>
<path d="M159.343 156.142L153.56 158.837C152.559 159.303 152.125 160.493 152.592 161.494L155.286 167.277C155.752 168.279 156.942 168.712 157.943 168.246L163.727 165.551C164.728 165.085 165.161 163.895 164.695 162.894L162.001 157.111C161.534 156.109 160.344 155.676 159.343 156.142Z" fill="url(#paint18_linear_265_1897)"/>
<path d="M177.178 126.507L174.484 120.724C174.017 119.723 172.827 119.289 171.826 119.756L166.043 122.45C165.042 122.916 164.608 124.106 165.075 125.107L167.769 130.891C168.236 131.892 169.425 132.325 170.427 131.859L176.21 129.165C177.211 128.698 177.645 127.508 177.178 126.507Z" fill="url(#paint19_linear_265_1897)"/>
<path d="M53.4916 27.6241L49.5173 22.6332C48.8293 21.7691 47.571 21.6264 46.7069 22.3145L41.716 26.2887C40.8519 26.9768 40.7092 28.235 41.3972 29.0991L45.3715 34.0901C46.0596 34.9542 47.3178 35.0969 48.1819 34.4088L53.1729 30.4345C54.037 29.7465 54.1797 28.4882 53.4916 27.6241Z" fill="url(#paint20_linear_265_1897)"/>
<path d="M26.3564 87.5016L21.2698 83.6505C20.3892 82.9837 19.1348 83.1571 18.468 84.0378L14.6169 89.1243C13.9502 90.005 14.1236 91.2594 15.0042 91.9261L20.0908 95.7773C20.9714 96.444 22.2258 96.2706 22.8926 95.39L26.7437 90.3034C27.4104 89.4228 27.237 88.1684 26.3564 87.5016Z" fill="url(#paint21_linear_265_1897)"/>
<path d="M109.527 42.9115L105.553 37.9206C104.865 37.0565 103.607 36.9138 102.743 37.6019L97.7516 41.5761C96.8875 42.2642 96.7448 43.5225 97.4329 44.3865L101.407 49.3775C102.095 50.2416 103.353 50.3843 104.218 49.6962L109.209 45.722C110.073 45.0339 110.215 43.7756 109.527 42.9115Z" fill="url(#paint22_linear_265_1897)"/>
</g>
<defs>
<linearGradient id="paint0_linear_265_1897" x1="20" y1="-6.5" x2="37.6269" y2="20.6172" gradientUnits="userSpaceOnUse">
<stop stop-color="#EEE7C2"/>
<stop offset="1" stop-color="#C4A8FF"/>
</linearGradient>
<linearGradient id="paint1_linear_265_1897" x1="207" y1="11.5" x2="169.672" y2="68.0768" gradientUnits="userSpaceOnUse">
<stop stop-color="#EEE7C2"/>
<stop offset="1" stop-color="#C4A8FF"/>
</linearGradient>
<linearGradient id="paint2_linear_265_1897" x1="187" y1="129.5" x2="100.581" y2="172.966" gradientUnits="userSpaceOnUse">
<stop stop-color="#EEE7C2"/>
<stop offset="1" stop-color="#C4A8FF"/>
</linearGradient>
<linearGradient id="paint3_linear_265_1897" x1="13.5" y1="8" x2="109.493" y2="81.3803" gradientUnits="userSpaceOnUse">
<stop stop-color="#EEE7C2"/>
<stop offset="1" stop-color="#C4A8FF"/>
</linearGradient>
<linearGradient id="paint4_linear_265_1897" x1="19" y1="82" x2="170.899" y2="100.1" gradientUnits="userSpaceOnUse">
<stop stop-color="#C4A8FF"/>
<stop offset="1" stop-color="#EEE7C2"/>
</linearGradient>
<linearGradient id="paint5_linear_265_1897" x1="6.47469" y1="131.703" x2="103.765" y2="132.398" gradientUnits="userSpaceOnUse">
<stop stop-color="#C4A8FF"/>
<stop offset="1" stop-color="#EEE7C2"/>
</linearGradient>
<linearGradient id="paint6_linear_265_1897" x1="-4.02086" y1="156.626" x2="59.7914" y2="154.796" gradientUnits="userSpaceOnUse">
<stop stop-color="#C4A8FF"/>
<stop offset="1" stop-color="#EEE7C2"/>
</linearGradient>
<linearGradient id="paint7_linear_265_1897" x1="197.5" y1="43" x2="137.487" y2="83.3621" gradientUnits="userSpaceOnUse">
<stop stop-color="#EEE7C2"/>
<stop offset="1" stop-color="#C4A8FF"/>
</linearGradient>
<linearGradient id="paint8_linear_265_1897" x1="220.5" y1="34" x2="66.9432" y2="79.4802" gradientUnits="userSpaceOnUse">
<stop stop-color="#EEE7C2"/>
<stop offset="1" stop-color="#C4A8FF"/>
</linearGradient>
<linearGradient id="paint9_linear_265_1897" x1="162.5" y1="30.5" x2="127.864" y2="91.4701" gradientUnits="userSpaceOnUse">
<stop stop-color="#EEE7C2"/>
<stop offset="1" stop-color="#C4A8FF"/>
</linearGradient>
<linearGradient id="paint10_linear_265_1897" x1="9.38144" y1="57.2081" x2="47.1778" y2="61.6362" gradientUnits="userSpaceOnUse">
<stop stop-color="#EEE7C2"/>
<stop offset="1" stop-color="#C4A8FF"/>
</linearGradient>
<linearGradient id="paint11_linear_265_1897" x1="8.47904" y1="33.5883" x2="38.5771" y2="36.7049" gradientUnits="userSpaceOnUse">
<stop stop-color="#C4A8FF"/>
<stop offset="1" stop-color="#EEE7C2"/>
</linearGradient>
<linearGradient id="paint12_linear_265_1897" x1="144.994" y1="14.12" x2="149.822" y2="26.8582" gradientUnits="userSpaceOnUse">
<stop stop-color="#C4A8FF"/>
<stop offset="1" stop-color="#EEE7C2"/>
</linearGradient>
<linearGradient id="paint13_linear_265_1897" x1="91.3041" y1="11.6025" x2="98.5782" y2="23.12" gradientUnits="userSpaceOnUse">
<stop stop-color="#C4A8FF"/>
<stop offset="1" stop-color="#EEE7C2"/>
</linearGradient>
<linearGradient id="paint14_linear_265_1897" x1="63.0697" y1="15.7173" x2="70.3438" y2="27.2348" gradientUnits="userSpaceOnUse">
<stop stop-color="#C4A8FF"/>
<stop offset="1" stop-color="#EEE7C2"/>
</linearGradient>
<linearGradient id="paint15_linear_265_1897" x1="150.771" y1="107.017" x2="153.862" y2="120.284" gradientUnits="userSpaceOnUse">
<stop stop-color="#C4A8FF"/>
<stop offset="1" stop-color="#EEE7C2"/>
</linearGradient>
<linearGradient id="paint16_linear_265_1897" x1="117.099" y1="135.334" x2="123.926" y2="147.122" gradientUnits="userSpaceOnUse">
<stop stop-color="#C4A8FF"/>
<stop offset="1" stop-color="#EEE7C2"/>
</linearGradient>
<linearGradient id="paint17_linear_265_1897" x1="148.46" y1="140.532" x2="161.155" y2="145.471" gradientUnits="userSpaceOnUse">
<stop stop-color="#C4A8FF"/>
<stop offset="1" stop-color="#EEE7C2"/>
</linearGradient>
<linearGradient id="paint18_linear_265_1897" x1="152.086" y1="165.786" x2="164.987" y2="161.413" gradientUnits="userSpaceOnUse">
<stop stop-color="#C4A8FF"/>
<stop offset="1" stop-color="#EEE7C2"/>
</linearGradient>
<linearGradient id="paint19_linear_265_1897" x1="167.535" y1="119.25" x2="171.908" y2="132.151" gradientUnits="userSpaceOnUse">
<stop stop-color="#C4A8FF"/>
<stop offset="1" stop-color="#EEE7C2"/>
</linearGradient>
<linearGradient id="paint20_linear_265_1897" x1="42.4164" y1="22.8284" x2="49.6905" y2="34.3459" gradientUnits="userSpaceOnUse">
<stop stop-color="#C4A8FF"/>
<stop offset="1" stop-color="#EEE7C2"/>
</linearGradient>
<linearGradient id="paint21_linear_265_1897" x1="14.4385" y1="85.5984" x2="24.3385" y2="94.9554" gradientUnits="userSpaceOnUse">
<stop stop-color="#C4A8FF"/>
<stop offset="1" stop-color="#EEE7C2"/>
</linearGradient>
<linearGradient id="paint22_linear_265_1897" x1="98.452" y1="38.1158" x2="105.726" y2="49.6333" gradientUnits="userSpaceOnUse">
<stop stop-color="#C4A8FF"/>
<stop offset="1" stop-color="#EEE7C2"/>
</linearGradient>
<clipPath id="clip0_265_1897">
<rect width="185.6" height="174.35" fill="white"/>
</clipPath>
</defs>
</svg>
