<svg width="235" height="301" viewBox="0 0 235 301" fill="none" xmlns="http://www.w3.org/2000/svg">
<path d="M158.56 23.79L147.54 9.14L138.27 0L139.16 4.79L146.97 14.12L150 26.35L155 28L158.56 23.79Z" fill="url(#paint0_linear_265_1442)"/>
<path d="M97.17 56.23L109.91 42.93L114.45 32.65L119.11 28.75L129.83 11.73V6.93L132.85 0H138.27L141.5 4.5L148.5 13.5L150 26.35L125.5 44L97.17 56.23Z" fill="url(#paint1_linear_265_1442)"/>
<path d="M156.81 96.07L146 101.5L141.3 109.18H219.97L222.3 106.76L190 97.5001L156.81 96.07Z" fill="url(#paint2_linear_265_1442)"/>
<path d="M141.3 109.18H9.37L33.5 96.07L55.06 92.92L70.19 86.24L86.14 82.55L121.5 83.9999L156.81 96.07L141.3 109.18Z" fill="url(#paint3_linear_265_1442)"/>
<path d="M195.45 76.88L222.3 102.22L180.5 79.5L195.45 76.88Z" fill="url(#paint4_linear_265_1442)"/>
<path d="M97.17 56.23L91.75 63.54L103 77L156.81 96.07L160 86L158.19 75.39L130 63L97.17 56.23Z" fill="url(#paint5_linear_265_1442)"/>
<path d="M156.81 96.07L86.14 82.55L80.28 71.11L91.75 63.54L156.81 96.07Z" fill="url(#paint6_linear_265_1442)"/>
<path d="M150 26.35L170.49 20.24L172.5 49.5L166.5 67.5L158.19 75.39L97.17 56.23L150 26.35Z" fill="url(#paint7_linear_265_1442)"/>
<path d="M170.49 20.24L164.06 44.06L178.5 58L197.53 65.62L187.89 40.85L170.49 20.24Z" fill="url(#paint8_linear_265_1442)"/>
<path d="M197.53 65.62L195.45 76.88L189.02 81.04H173L158.2 75.39L156.81 62.41L161.22 58.75L159.96 44.06H164.06L197.53 65.62Z" fill="url(#paint9_linear_265_1442)"/>
<path d="M158.19 75.39L154.79 77.92L156.81 96.07L222.3 106.76V102.22L189.4 81.04L158.19 75.39Z" fill="url(#paint10_linear_265_1442)"/>
<path d="M19.36 168.44L30.96 214.33L38.02 227.95L46.34 270.06L49.87 278.88L64.24 282.92L73.57 293.25L64.24 248.5L39.5 211.5L19.36 168.44Z" fill="url(#paint11_linear_265_1442)"/>
<path d="M75 164.5L84.5 234L98.5 272.07L105.59 296.28L115.93 272.07L120.22 223.91L125.77 187.35L75 164.5Z" fill="url(#paint12_linear_265_1442)"/>
<path d="M59 135.5L80.88 171.21L125.77 187.35L136.86 179.28L176.2 164.66L159 135.5L129.8 109.18H90.35L59 135.5Z" fill="url(#paint13_linear_265_1442)"/>
<path d="M129.8 109.18L176.2 164.66L200.97 129.1L234.19 109.18H129.8Z" fill="url(#paint14_linear_265_1442)"/>
<path d="M0 109.18L4.72998 141.46H27L64.24 136.92L90.35 109.18H0Z" fill="url(#paint15_linear_265_1442)"/>
<path d="M4.72998 141.46L19.36 168.44L50 174L80.88 171.21L64.24 136.92L23.9 132.13L4.72998 141.46Z" fill="url(#paint16_linear_265_1442)"/>
<path d="M19.36 168.44L34.99 214.08L60.96 251.9L73.57 293.25L82.9 300.57L105.59 296.28V274.34L87.94 232.23L80.88 171.21L19.36 168.44Z" fill="url(#paint17_linear_265_1442)"/>
<defs>
<linearGradient id="paint0_linear_265_1442" x1="147.524" y1="-0.093146" x2="165.09" y2="24.0274" gradientUnits="userSpaceOnUse">
<stop stop-color="#C4A8FF"/>
<stop offset="1" stop-color="#9E70FF"/>
</linearGradient>
<linearGradient id="paint1_linear_265_1442" x1="121.264" y1="-0.187059" x2="142.831" y2="36.8377" gradientUnits="userSpaceOnUse">
<stop stop-color="#C4A8FF"/>
<stop offset="1" stop-color="#9E70FF"/>
</linearGradient>
<linearGradient id="paint2_linear_265_1442" x1="178.242" y1="96.0264" x2="179.708" y2="113.185" gradientUnits="userSpaceOnUse">
<stop stop-color="#C4A8FF"/>
<stop offset="1" stop-color="#9E70FF"/>
</linearGradient>
<linearGradient id="paint3_linear_265_1442" x1="70.46" y1="77" x2="69.5932" y2="122.955" gradientUnits="userSpaceOnUse">
<stop stop-color="#C4A8FF"/>
<stop offset="1" stop-color="#9E70FF"/>
</linearGradient>
<linearGradient id="paint4_linear_265_1442" x1="211.96" y1="97.5" x2="201.451" y2="64.2129" gradientUnits="userSpaceOnUse">
<stop stop-color="#C4A8FF"/>
<stop offset="1" stop-color="#9E70FF"/>
</linearGradient>
<linearGradient id="paint5_linear_265_1442" x1="122.877" y1="56.0974" x2="137.655" y2="104.068" gradientUnits="userSpaceOnUse">
<stop stop-color="#C4A8FF"/>
<stop offset="1" stop-color="#9E70FF"/>
</linearGradient>
<linearGradient id="paint6_linear_265_1442" x1="115.183" y1="63.4318" x2="124.343" y2="104.263" gradientUnits="userSpaceOnUse">
<stop stop-color="#C4A8FF"/>
<stop offset="1" stop-color="#9E70FF"/>
</linearGradient>
<linearGradient id="paint7_linear_265_1442" x1="131.526" y1="20.0565" x2="155.968" y2="83.3195" gradientUnits="userSpaceOnUse">
<stop stop-color="#C4A8FF"/>
<stop offset="1" stop-color="#9E70FF"/>
</linearGradient>
<linearGradient id="paint8_linear_265_1442" x1="179.325" y1="20.089" x2="207.637" y2="59.6573" gradientUnits="userSpaceOnUse">
<stop stop-color="#C4A8FF"/>
<stop offset="1" stop-color="#9E70FF"/>
</linearGradient>
<linearGradient id="paint9_linear_265_1442" x1="175.381" y1="43.937" x2="196.67" y2="77.5299" gradientUnits="userSpaceOnUse">
<stop stop-color="#C4A8FF"/>
<stop offset="1" stop-color="#9E70FF"/>
</linearGradient>
<linearGradient id="paint10_linear_265_1442" x1="185.579" y1="75.2857" x2="195.146" y2="114.296" gradientUnits="userSpaceOnUse">
<stop stop-color="#C4A8FF"/>
<stop offset="1" stop-color="#9E70FF"/>
</linearGradient>
<linearGradient id="paint11_linear_265_1442" x1="44.0837" y1="168.025" x2="124.819" y2="234.472" gradientUnits="userSpaceOnUse">
<stop stop-color="#C4A8FF"/>
<stop offset="1" stop-color="#9E70FF"/>
</linearGradient>
<linearGradient id="paint12_linear_265_1442" x1="98.1548" y1="164.062" x2="180.89" y2="224.461" gradientUnits="userSpaceOnUse">
<stop stop-color="#C4A8FF"/>
<stop offset="1" stop-color="#9E70FF"/>
</linearGradient>
<linearGradient id="paint13_linear_265_1442" x1="112.452" y1="108.92" x2="144.727" y2="200.614" gradientUnits="userSpaceOnUse">
<stop stop-color="#C4A8FF"/>
<stop offset="1" stop-color="#9E70FF"/>
</linearGradient>
<linearGradient id="paint14_linear_265_1442" x1="177.409" y1="108.995" x2="196.428" y2="176.803" gradientUnits="userSpaceOnUse">
<stop stop-color="#C4A8FF"/>
<stop offset="1" stop-color="#9E70FF"/>
</linearGradient>
<linearGradient id="paint15_linear_265_1442" x1="41.2062" y1="109.073" x2="48.9546" y2="150.168" gradientUnits="userSpaceOnUse">
<stop stop-color="#C4A8FF"/>
<stop offset="1" stop-color="#9E70FF"/>
</linearGradient>
<linearGradient id="paint16_linear_265_1442" x1="39.46" y1="131.991" x2="54.2331" y2="182.903" gradientUnits="userSpaceOnUse">
<stop stop-color="#C4A8FF"/>
<stop offset="1" stop-color="#9E70FF"/>
</linearGradient>
<linearGradient id="paint17_linear_265_1442" x1="58.6872" y1="168.001" x2="143.855" y2="273.322" gradientUnits="userSpaceOnUse">
<stop stop-color="#C4A8FF"/>
<stop offset="1" stop-color="#9E70FF"/>
</linearGradient>
</defs>
</svg>
