<svg width="252" height="101" viewBox="0 0 252 101" fill="none" xmlns="http://www.w3.org/2000/svg">
<rect x="139" width="16" height="32" fill="url(#paint0_linear_265_934)"/>
<rect x="111" width="16" height="32" fill="url(#paint1_linear_265_934)"/>
<rect x="83" width="16" height="32" fill="url(#paint2_linear_265_934)"/>
<rect x="55" width="16" height="32" fill="url(#paint3_linear_265_934)"/>
<rect x="139" width="16" height="8" fill="url(#paint4_linear_265_934)"/>
<rect x="111" width="16" height="8" fill="url(#paint5_linear_265_934)"/>
<rect x="83" width="16" height="8" fill="url(#paint6_linear_265_934)"/>
<rect x="55" width="16" height="8" fill="url(#paint7_linear_265_934)"/>
<path d="M193.667 35.7584C192.752 33.4875 190.55 32 188.101 32H26.9085C24.4617 32 22.26 33.4858 21.3444 35.7549L16 49H199L193.667 35.7584Z" fill="url(#paint8_linear_265_934)"/>
<path d="M193.667 35.7584C192.752 33.4875 190.55 32 188.101 32H26.9085C24.4617 32 22.26 33.4858 21.3444 35.7549L16 49H199L193.667 35.7584Z" fill="url(#paint9_linear_265_934)"/>
<path d="M219.269 44.2063C218.231 42.2345 216.187 41 213.959 41H12.4503C10.5951 41 8.8923 42.0273 8.02719 43.6685L1 57H226L219.269 44.2063Z" fill="url(#paint10_linear_265_934)"/>
<path d="M208.623 96.3747L218 79L116 75L14 79L16.1499 92.2786C16.7771 96.1529 20.1223 99 24.047 99H204.223C206.061 99 207.75 97.9919 208.623 96.3747Z" fill="url(#paint11_linear_265_934)"/>
<path d="M218 79H14L12.932 75.6C10.685 68.4467 6.56522 62.0247 1 57H248C248 57 243.5 64.1628 236.5 71.3256C229.5 78.4884 218 79 218 79Z" fill="url(#paint12_linear_265_934)"/>
<defs>
<linearGradient id="paint0_linear_265_934" x1="135.5" y1="17.5" x2="159.162" y2="18.7645" gradientUnits="userSpaceOnUse">
<stop stop-color="#F9D420"/>
<stop offset="1" stop-color="#C4A8FF"/>
</linearGradient>
<linearGradient id="paint1_linear_265_934" x1="107.5" y1="17.5" x2="132.517" y2="17.519" gradientUnits="userSpaceOnUse">
<stop stop-color="#F9D420"/>
<stop offset="1" stop-color="#C4A8FF"/>
</linearGradient>
<linearGradient id="paint2_linear_265_934" x1="82" y1="18" x2="109.553" y2="19.6902" gradientUnits="userSpaceOnUse">
<stop stop-color="#F9D420"/>
<stop offset="1" stop-color="#C4A8FF"/>
</linearGradient>
<linearGradient id="paint3_linear_265_934" x1="52.5" y1="17.5" x2="87.1978" y2="16.6267" gradientUnits="userSpaceOnUse">
<stop stop-color="#F9D420"/>
<stop offset="1" stop-color="#C4A8FF"/>
</linearGradient>
<linearGradient id="paint4_linear_265_934" x1="143" y1="8" x2="162.01" y2="7.24996" gradientUnits="userSpaceOnUse">
<stop stop-color="#2D2440"/>
<stop offset="1" stop-color="#8263C5"/>
</linearGradient>
<linearGradient id="paint5_linear_265_934" x1="115" y1="8" x2="134.01" y2="7.24996" gradientUnits="userSpaceOnUse">
<stop stop-color="#2D2440"/>
<stop offset="1" stop-color="#8263C5"/>
</linearGradient>
<linearGradient id="paint6_linear_265_934" x1="87" y1="8" x2="106.01" y2="7.24996" gradientUnits="userSpaceOnUse">
<stop stop-color="#2D2440"/>
<stop offset="1" stop-color="#8263C5"/>
</linearGradient>
<linearGradient id="paint7_linear_265_934" x1="59" y1="8" x2="78.0099" y2="7.24996" gradientUnits="userSpaceOnUse">
<stop stop-color="#2D2440"/>
<stop offset="1" stop-color="#8263C5"/>
</linearGradient>
<linearGradient id="paint8_linear_265_934" x1="194.933" y1="-14.75" x2="127.67" y2="42.2841" gradientUnits="userSpaceOnUse">
<stop stop-color="#C4A8FF"/>
<stop offset="1" stop-color="#E9E9E9"/>
</linearGradient>
<linearGradient id="paint9_linear_265_934" x1="108" y1="36" x2="108" y2="57.5" gradientUnits="userSpaceOnUse">
<stop stop-color="#E9E9E9" stop-opacity="0"/>
<stop offset="1" stop-color="#565656"/>
</linearGradient>
<linearGradient id="paint10_linear_265_934" x1="221" y1="-3.00003" x2="157.164" y2="67.7102" gradientUnits="userSpaceOnUse">
<stop stop-color="#C4A8FF"/>
<stop offset="1" stop-color="#E9E9E9"/>
</linearGradient>
<linearGradient id="paint11_linear_265_934" x1="130" y1="91" x2="298.964" y2="87.3319" gradientUnits="userSpaceOnUse">
<stop stop-color="#FB7171"/>
<stop offset="1" stop-color="#C4A8FF"/>
</linearGradient>
<linearGradient id="paint12_linear_265_934" x1="62.75" y1="79" x2="342.927" y2="16.9442" gradientUnits="userSpaceOnUse">
<stop stop-color="#2D2440"/>
<stop offset="1" stop-color="#8263C5"/>
</linearGradient>
</defs>
</svg>
