<svg width="208" height="208" viewBox="0 0 208 208" fill="none" xmlns="http://www.w3.org/2000/svg">
<path d="M131.397 182.274C131.397 182.274 135.318 181.323 136.733 179.222C138.161 177.146 137.548 166.402 137.372 165.439C135 165 133 168 132.687 170.455V178.396C132.687 179.96 132.148 181.261 131.397 182.274Z" fill="url(#paint0_radial_246_10616)"/>
<path d="M125.797 184.6C125.797 184.6 128.027 185.088 129.505 184.1C130.144 183.674 130.833 183.062 131.397 182.286C132.148 181.261 132.687 179.96 132.687 178.396V170.455C132.687 170.455 132.649 169.129 132.324 168.929C132.324 168.929 129.929 168.549 128 170C127.198 170.625 126.373 173.706 126.373 173.706V182.361C126.373 183.262 126.148 184 125.797 184.6Z" fill="url(#paint1_radial_246_10616)"/>
<path d="M115.525 175.633V183.749C115.525 185.45 116.515 186.814 117.755 186.814H122.152C123.041 186.814 124.87 186.201 125.797 184.6C126.148 184 126.373 183.262 126.373 182.361V173.706C126.373 173.706 126.19 171.001 125 170C124.436 169.512 124 169 122 169C122 169 118 169 117 172L115.525 175.633Z" fill="url(#paint2_radial_246_10616)"/>
<path d="M104.727 176.095V184.6C104.727 185.825 105.716 186.814 106.944 186.814H113.32C114.535 186.814 115.525 185.825 115.525 184.6V175.632C115.525 175.632 115.137 169 110.477 169C105.015 169 104.727 176.095 104.727 176.095Z" fill="url(#paint3_radial_246_10616)"/>
<path d="M78.0688 182.274C78.0688 182.274 74.1479 181.323 72.7323 179.222C71.3042 177.146 71.918 166.403 72.0934 165.44C75 164.5 76.5 168 76.7786 170.455V178.397C76.7786 179.96 77.3172 181.261 78.0688 182.274Z" fill="url(#paint4_radial_246_10616)"/>
<path d="M83.6684 184.6C83.6684 184.6 81.4386 185.088 79.9604 184.1C79.3215 183.674 78.6325 183.061 78.0688 182.286C77.3172 181.261 76.7785 179.96 76.7785 178.396V170.455C76.7785 170.455 75.6743 168.2 76 168C76 168 80.0708 167.478 82 168.929C82.8017 169.554 83 173 83.0922 173.706V182.361C83.0922 183.262 83.3177 184 83.6684 184.6Z" fill="url(#paint5_radial_246_10616)"/>
<path d="M93.9407 175.632V183.749C93.9407 185.45 92.9511 186.814 91.7109 186.814H87.3139C86.4244 186.814 84.5955 186.201 83.6685 184.6C83.3177 184 83.0922 183.262 83.0922 182.361V173.706C83.0922 173.706 82.8099 171.001 84 170C84.5637 169.512 85.9853 169.013 86.9999 169C86.9999 169 91.885 169.324 92.9999 172L93.9407 175.632Z" fill="url(#paint6_radial_246_10616)"/>
<path d="M104.739 176.095V184.6C104.739 185.825 103.75 186.814 102.522 186.814H96.1456C94.9304 186.814 93.9408 185.825 93.9408 184.6V175.632C93.9408 175.632 94.3291 169 98.9892 169C104.451 169 104.739 176.095 104.739 176.095Z" fill="url(#paint7_radial_246_10616)"/>
<path d="M204.229 183.837C201.799 186.176 194.107 186.601 192.755 186.939C191.389 187.264 189.873 191.929 189.873 191.929C189.209 195.03 187.894 198.032 187.894 198.032C187.894 198.032 182.056 212.502 168.464 205.411C154.885 198.32 153.144 185.951 151.24 178.034C149.348 170.117 147.356 168.954 147.356 168.954L138.688 160.299L138.65 160.174C137 155.5 143.551 148.816 147.356 147C150.5 145.5 155 144.5 161.161 145.116C163.704 147.88 166.159 150.519 167.024 151.357C169.041 153.333 174.452 153.496 174.452 153.496C180.403 153.683 184.286 154.296 184.286 154.296C195.598 156.034 204.229 166.24 204.229 166.24C209.002 171.318 207.787 180.735 204.229 183.837Z" fill="url(#paint8_radial_246_10616)"/>
<path d="M69.2748 156.66C65.642 159.974 59.4285 165.677 58.038 167.078C56.0587 169.104 55.8959 174.507 55.8959 174.507C55.708 180.435 55.0942 184.312 55.0942 184.312C53.3529 195.618 43.1308 204.223 43.1308 204.223C38.0448 209.001 28.6119 207.775 25.5051 204.223C23.1626 201.797 22.7366 194.13 22.3984 192.767C22.0727 191.404 17.4001 189.903 17.4001 189.903C14.2934 189.24 11.2994 187.927 11.2994 187.927C11.2994 187.927 -3.20698 182.086 3.89588 168.529C10.9988 154.959 23.3881 153.22 31.3177 151.332C39.2474 149.431 40.4124 147.455 40.4124 147.455L44.7092 143.165C44.7092 143.165 55.0942 143.797 61.5 147C65.5 149 68.5 153.5 69.2748 156.66Z" fill="url(#paint9_radial_246_10616)"/>
<path d="M198.003 47.4507C188.094 55.5301 175.004 56.9809 175.004 56.9809L173.826 56.8683C173.826 56.8683 166.348 51.6278 161.5 46.5C158.093 42.9106 151.628 32.7928 151.628 32.7928C152.956 19.1229 157.403 11.7439 157.403 11.7439C163.103 1.03809 174.465 0.650384 174.465 0.650384C178.962 0.362729 181.418 2.3513 183.297 5.39045C185.176 8.50463 185.489 14.8706 186.353 16.1588C187.218 17.4345 189.66 17.7596 189.66 17.7596C198.041 18.7977 203.252 24.7134 204.279 27.8276C205.081 30.2289 207.912 39.3713 198.003 47.4507Z" fill="url(#paint10_radial_246_10616)"/>
<path d="M57.086 33.2679C57.086 33.2679 51.1944 42.6357 48 46C43.152 51.1153 35.6396 56.8307 35.6396 56.8307C20.1686 55.8802 11.7629 50.84 11.7629 50.84C1.05225 45.1494 0.651383 33.8182 0.651383 33.8182C0.36326 29.3158 2.3676 26.877 5.39915 25.001C8.5184 23.1125 14.9072 22.7998 16.185 21.9368C17.4628 21.0739 17.801 18.635 17.801 18.635C18.8282 10.268 24.7535 5.0777 27.8728 4.03964C30.278 3.25171 39.4353 0.412678 47.5278 10.3055C55.6203 20.2109 57.086 33.2679 57.086 33.2679Z" fill="url(#paint11_radial_246_10616)"/>
<path d="M179.351 94.6262C177.722 104.369 172.01 116.225 170.018 120.178C169.554 121.091 169.316 122.091 169.329 123.104C169.329 123.104 170.92 136.561 167.212 141.014C165.871 142.615 163.642 143.978 161.161 145.116C156.739 147.155 151.49 148.455 148.947 149.093C145.302 150.006 139.765 155.447 138.65 160.174C138.55 160.587 138.487 160.987 138.462 161.387C138.136 166.327 134.579 169.292 132.687 170.455C132.687 170.455 132.637 169.129 132.311 168.929C132.311 168.929 129.417 172.556 126.361 173.706C126.361 173.706 125.609 170.355 122.477 170.33C122.477 170.33 119.22 170.367 118.106 173.044C118.106 173.044 116.903 175.633 115.525 175.633C115.525 175.633 115.124 171.643 110.464 171.643C105.015 171.643 104.727 176.095 104.727 176.095C104.727 176.095 104.438 171.643 98.9766 171.643C94.3166 171.643 93.9282 175.633 93.9282 175.633C92.5377 175.633 91.3476 173.044 91.3476 173.044C90.2327 170.367 86.9631 170.33 86.9631 170.33C85.9485 170.342 85.1718 170.692 84.6081 171.18C83.418 172.181 83.0797 173.706 83.0797 173.706C82.1778 173.369 81.3009 172.818 80.4992 172.193C78.57 170.742 77.1294 168.929 77.1294 168.929C76.8037 169.129 76.7661 170.455 76.7661 170.455C75.4507 169.654 73.3712 168.003 72.081 165.44C71.4922 164.264 71.0788 162.926 70.9786 161.387C70.8783 159.874 70.2395 158.236 69.2749 156.66C67.0826 153.058 63.2493 149.781 60.4934 149.093C57.2113 148.28 49.4069 146.329 44.7092 143.165C43.7321 142.502 42.8803 141.777 42.2414 141.014C38.5208 136.561 40.1243 123.104 40.1243 123.104C40.1243 122.091 39.8988 121.091 39.4353 120.178C37.431 116.225 31.7186 104.369 30.1026 94.6262C28.5868 85.5963 27.2715 72.1515 35.6396 56.8308C38.2578 52.0157 41.853 47.0129 46.701 41.8977C49.8954 38.5334 53.403 35.6818 57.086 33.268C76.741 20.3735 101.006 19.9608 104.727 19.9608C108.447 19.9608 132.098 20.361 151.628 32.7928C155.574 35.3066 159.345 38.3082 162.752 41.8977C167.6 47.0255 171.195 52.0407 173.826 56.8683C182.169 72.1641 180.854 85.6088 179.351 94.6262Z" fill="url(#paint12_radial_246_10616)"/>
<path d="M89.2431 125.43C79.2339 133.635 69.1371 133.597 62.1469 130.045C53.5534 125.43 50.4967 109.922 58.3512 99.2036C66.1932 89.7985 79.9104 90.624 79.9104 90.624C79.9104 90.624 91.0595 90.6115 95.1934 98.866C99.152 106.533 95.7697 119.977 89.2431 125.418V125.43Z" fill="url(#paint13_radial_246_10616)"/>
<path d="M120.373 125.43C130.382 133.635 140.479 133.597 147.469 130.045C156.063 125.43 159.119 109.922 151.265 99.2036C143.423 89.7985 129.706 90.624 129.706 90.624C129.706 90.624 118.557 90.6115 114.423 98.866C110.464 106.533 113.846 119.977 120.373 125.418V125.43Z" fill="url(#paint14_radial_246_10616)"/>
<path d="M103.349 143.453C103.85 143.14 104.464 143.14 104.965 143.453C109.913 146.592 114.485 146.079 114.485 141.126C114.485 135.898 106.581 131.659 104.163 131.659C101.745 131.659 93.8406 135.898 93.8406 141.126C93.8406 146.079 98.413 146.592 103.361 143.453H103.349Z" fill="url(#paint15_radial_246_10616)"/>
<defs>
<radialGradient id="paint0_radial_246_10616" cx="0" cy="0" r="1" gradientUnits="userSpaceOnUse" gradientTransform="translate(142.04 169.262) rotate(112.479) scale(21.9061 8.71662)">
<stop stop-color="#EEE7C2"/>
<stop offset="1" stop-color="#9E70FF"/>
</radialGradient>
<radialGradient id="paint1_radial_246_10616" cx="0" cy="0" r="1" gradientUnits="userSpaceOnUse" gradientTransform="translate(135.06 175.893) rotate(106.783) scale(22.9647 10.7152)">
<stop stop-color="#EEE7C2"/>
<stop offset="1" stop-color="#9E70FF"/>
</radialGradient>
<radialGradient id="paint2_radial_246_10616" cx="0" cy="0" r="1" gradientUnits="userSpaceOnUse" gradientTransform="translate(130.872 175.544) rotate(109.486) scale(24.0628 16.8569)">
<stop stop-color="#EEE7C2"/>
<stop offset="1" stop-color="#9E70FF"/>
</radialGradient>
<radialGradient id="paint3_radial_246_10616" cx="0" cy="0" r="1" gradientUnits="userSpaceOnUse" gradientTransform="translate(120.054 174.497) rotate(107.301) scale(22.2974 16.8701)">
<stop stop-color="#EEE7C2"/>
<stop offset="1" stop-color="#9E70FF"/>
</radialGradient>
<radialGradient id="paint4_radial_246_10616" cx="0" cy="0" r="1" gradientUnits="userSpaceOnUse" gradientTransform="translate(82.0134 165.074) rotate(100.739) scale(20.6024 8.19787)">
<stop stop-color="#EEE7C2"/>
<stop offset="1" stop-color="#9E70FF"/>
</radialGradient>
<radialGradient id="paint5_radial_246_10616" cx="0" cy="0" r="1" gradientUnits="userSpaceOnUse" gradientTransform="translate(86.8994 168.564) rotate(106.405) scale(20.5447 9.58609)">
<stop stop-color="#EEE7C2"/>
<stop offset="0.931017" stop-color="#9E70FF"/>
</radialGradient>
<radialGradient id="paint6_radial_246_10616" cx="0" cy="0" r="1" gradientUnits="userSpaceOnUse" gradientTransform="translate(95.973 179.731) rotate(101.497) scale(21.0122 13.6499)">
<stop stop-color="#EEE7C2"/>
<stop offset="1" stop-color="#A478FB"/>
</radialGradient>
<radialGradient id="paint7_radial_246_10616" cx="0" cy="0" r="1" gradientUnits="userSpaceOnUse" gradientTransform="translate(108.188 176.94) rotate(106.22) scale(19.9903 15.1246)">
<stop stop-color="#EEE7C2"/>
<stop offset="1" stop-color="#9E70FF"/>
</radialGradient>
<radialGradient id="paint8_radial_246_10616" cx="0" cy="0" r="1" gradientUnits="userSpaceOnUse" gradientTransform="translate(221.96 151.812) rotate(113.157) scale(63.0095 72.9417)">
<stop stop-color="#EEE7C2"/>
<stop offset="1" stop-color="#9E70FF"/>
</radialGradient>
<radialGradient id="paint9_radial_246_10616" cx="0" cy="0" r="1" gradientUnits="userSpaceOnUse" gradientTransform="translate(82.3624 211.839) rotate(131.027) scale(71.2425 78.5375)">
<stop stop-color="#EEE7C2"/>
<stop offset="1" stop-color="#9E70FF"/>
</radialGradient>
<radialGradient id="paint10_radial_246_10616" cx="0" cy="0" r="1" gradientUnits="userSpaceOnUse" gradientTransform="translate(214.282 15.0068) rotate(107.078) scale(60.6054 60.8445)">
<stop stop-color="#EEE7C2"/>
<stop offset="1" stop-color="#9E70FF"/>
</radialGradient>
<radialGradient id="paint11_radial_246_10616" cx="0" cy="0" r="1" gradientUnits="userSpaceOnUse" gradientTransform="translate(57.2348 -2.094) rotate(90) scale(56.1879 62.0058)">
<stop stop-color="#EEE7C2"/>
<stop offset="1" stop-color="#9E70FF"/>
</radialGradient>
<radialGradient id="paint12_radial_246_10616" cx="0" cy="0" r="1" gradientUnits="userSpaceOnUse" gradientTransform="translate(145.879 75.3826) rotate(71.4277) scale(138.062 141.205)">
<stop stop-color="#EEE7C2"/>
<stop offset="1" stop-color="#9E70FF"/>
</radialGradient>
<radialGradient id="paint13_radial_246_10616" cx="0" cy="0" r="1" gradientUnits="userSpaceOnUse" gradientTransform="translate(51.651 142.389) rotate(58.6429) scale(52.3118 56.7577)">
<stop stop-color="#EEE7C2"/>
<stop offset="1" stop-color="#9E70FF"/>
</radialGradient>
<radialGradient id="paint14_radial_246_10616" cx="0" cy="0" r="1" gradientUnits="userSpaceOnUse" gradientTransform="translate(116.564 134.711) rotate(85.4978) scale(44.4593 48.234)">
<stop stop-color="#EEE7C2"/>
<stop offset="1" stop-color="#9E70FF"/>
</radialGradient>
<radialGradient id="paint15_radial_246_10616" cx="0" cy="0" r="1" gradientUnits="userSpaceOnUse" gradientTransform="translate(100.161 149.369) rotate(80.7539) scale(15.2043 23.4689)">
<stop stop-color="#EEE7C2"/>
<stop offset="1" stop-color="#9E70FF"/>
</radialGradient>
</defs>
</svg>
