<svg width="259" height="274" viewBox="0 0 259 274" fill="none" xmlns="http://www.w3.org/2000/svg">
<g clip-path="url(#clip0_620_959)">
<path d="M194.51 47.01C196.73 50.31 198.76 53.72 200.58 57.22C197.18 57.85 193.89 58.79 190.73 60.01C189.34 57.48 187.83 55 186.21 52.59C184.67 50.3 185.28 47.19 187.57 45.65C189.86 44.11 192.97 44.72 194.51 47.01Z" fill="url(#paint0_linear_620_959)"/>
<path d="M212.55 168.8V179.1C212.55 181.86 210.32 184.1 207.55 184.1C204.78 184.1 202.55 181.86 202.55 179.1V168.19C205.3 168.61 208.11 168.82 210.97 168.82C211.5 168.82 212.03 168.82 212.55 168.8Z" fill="url(#paint1_linear_620_959)"/>
<path d="M6.27995 89.35C6.63995 89.43 6.99995 89.47 7.35995 89.47C9.65995 89.47 11.73 87.88 12.24 85.54C21.84 41.77 61.39 10 106.28 10C129.44 10 151.82 18.34 169.29 33.48C171.38 35.29 174.53 35.06 176.34 32.98C178.15 30.89 177.92 27.73 175.84 25.93C156.54 9.21 131.84 0 106.28 0C80.72 0 58.1 8.46 39.23 23.81C20.64 38.95 7.57995 60.11 2.46995 83.39C1.87995 86.09 3.57995 88.75 6.27995 89.35Z" fill="url(#paint2_linear_620_959)"/>
<path d="M10 165.05V112.53C10 109.77 7.76 107.53 5 107.53C2.24 107.53 0 109.77 0 112.53V165.05C0 167.81 2.24 170.05 5 170.05C7.76 170.05 10 167.81 10 165.05Z" fill="url(#paint3_linear_620_959)"/>
<path d="M106.28 150.87C109.04 150.87 111.28 148.63 111.28 145.87V104.99C111.28 102.23 109.04 99.99 106.28 99.99C103.52 99.99 101.28 102.23 101.28 104.99V145.87C101.28 148.63 103.52 150.87 106.28 150.87Z" fill="url(#paint4_linear_620_959)"/>
<path d="M97.1101 222.11C106.37 206.05 111.27 187.71 111.27 169.07C111.27 166.31 109.03 164.07 106.27 164.07C103.51 164.07 101.27 166.31 101.27 169.07C101.27 203.11 83.8501 233.95 54.6701 251.56C52.3101 252.99 51.5501 256.06 52.9701 258.42C53.9101 259.98 55.5601 260.84 57.2601 260.84C58.1401 260.84 59.0301 260.61 59.8401 260.12C75.2401 250.83 88.1301 237.68 97.1101 222.11Z" fill="url(#paint5_linear_620_959)"/>
<path d="M70.9201 169.07C70.9201 166.31 68.6801 164.07 65.9201 164.07C63.1601 164.07 60.9201 166.31 60.9201 169.07C60.9201 193.14 45.5802 214.39 22.7402 221.94C20.1202 222.81 18.7002 225.63 19.5602 228.26C20.2502 230.36 22.2102 231.69 24.3102 231.69C24.8302 231.69 25.3601 231.61 25.8801 231.44C52.8202 222.54 70.9201 197.47 70.9201 169.08V169.07Z" fill="url(#paint6_linear_620_959)"/>
<path d="M138.71 196.83C138.13 199.53 139.86 202.19 142.56 202.76C142.91 202.84 143.26 202.87 143.61 202.87C145.92 202.87 147.99 201.26 148.49 198.91C150.57 189.16 151.63 179.12 151.63 169.06V106.27C151.63 81.26 131.29 60.92 106.28 60.92C81.2702 60.92 60.9302 81.26 60.9302 106.27V142.7C60.9302 145.46 63.1702 147.7 65.9302 147.7C68.6902 147.7 70.9302 145.46 70.9302 142.7V106.27C70.9302 86.78 86.7902 70.92 106.28 70.92C125.77 70.92 141.63 86.78 141.63 106.27V169.06C141.63 178.42 140.65 187.76 138.71 196.82V196.83Z" fill="url(#paint7_linear_620_959)"/>
<path d="M137.73 218.06C135.19 216.98 132.25 218.17 131.18 220.71C124.1 237.4 113.84 252.25 100.66 264.83C98.6598 266.74 98.5898 269.9 100.5 271.9C101.48 272.93 102.8 273.45 104.12 273.45C105.36 273.45 106.6 272.99 107.57 272.07C121.74 258.54 132.78 242.57 140.39 224.62C141.47 222.08 140.28 219.14 137.74 218.07L137.73 218.06Z" fill="url(#paint8_linear_620_959)"/>
<path d="M165.92 78.83C163.37 82.23 161.2 85.92 159.47 89.86C152.45 67.15 131.26 50.61 106.28 50.61C75.5898 50.61 50.6198 75.58 50.6198 106.27V169.07C50.6198 190.3 35.5798 208.95 14.8498 213.41C14.4898 213.49 14.1398 213.53 13.7898 213.53C11.4798 213.53 9.40984 211.92 8.90984 209.58C8.32984 206.88 10.0398 204.22 12.7398 203.64C28.8998 200.16 40.6198 185.62 40.6198 169.07V106.27C40.6198 70.07 70.0798 40.61 106.28 40.61C132.69 40.61 155.52 56.29 165.92 78.83Z" fill="url(#paint9_linear_620_959)"/>
<path d="M171.94 153.05V169.07C171.94 204.61 160.85 238.5 139.86 267.05C138.88 268.39 137.36 269.09 135.83 269.09C134.8 269.09 133.76 268.78 132.87 268.12C130.64 266.49 130.17 263.36 131.8 261.13C151.52 234.3 161.94 202.47 161.94 169.07V140.14C164.63 144.92 168.01 149.26 171.94 153.05Z" fill="url(#paint10_linear_620_959)"/>
<path d="M30.3098 169.07V106.28C30.3098 79.18 44.9098 53.94 68.4198 40.4C70.8098 39.02 71.6398 35.96 70.2598 33.57C68.8798 31.18 65.8198 30.36 63.4298 31.73C36.8298 47.05 20.3098 75.61 20.3098 106.27V169.06C20.3098 176.8 14.5198 183.23 6.83978 184.03C4.08978 184.32 2.09978 186.77 2.37978 189.52C2.64978 192.09 4.81978 194 7.34978 194C7.51978 194 7.69978 194 7.86978 193.97C20.6598 192.64 30.3098 181.93 30.3098 169.05V169.07Z" fill="url(#paint11_linear_620_959)"/>
<path d="M173.38 70.68C160.6 46.68 135.31 30.31 106.28 30.31C101.25 30.31 96.2302 30.8 91.3402 31.77C88.6202 32.32 86.0002 30.56 85.4602 27.85C84.9202 25.14 86.6802 22.51 89.3902 21.97C94.9202 20.87 100.6 20.31 106.28 20.31C138.58 20.31 166.78 38.22 181.47 64.63C178.59 66.4 175.88 68.43 173.38 70.68Z" fill="url(#paint12_linear_620_959)"/>
<path d="M192.25 165.62V169.07C192.25 196.42 186.51 222.81 175.19 247.48C174.34 249.32 172.53 250.4 170.64 250.4C169.94 250.4 169.23 250.25 168.56 249.94C166.05 248.79 164.95 245.82 166.1 243.31C176.81 219.95 182.25 194.97 182.25 169.07V160.92C185.4 162.8 188.74 164.38 192.25 165.62Z" fill="url(#paint13_linear_620_959)"/>
<path d="M131.32 106.27C131.32 92.46 120.09 81.23 106.28 81.23C92.47 81.23 81.24 92.46 81.24 106.27C81.24 109.03 83.48 111.27 86.24 111.27C89 111.27 91.24 109.03 91.24 106.27C91.24 97.98 97.99 91.23 106.28 91.23C114.57 91.23 121.32 97.98 121.32 106.27V169.06C121.32 205.35 104.72 238.75 75.76 260.71C73.56 262.38 73.13 265.52 74.8 267.72C75.78 269.02 77.28 269.7 78.79 269.7C79.84 269.7 80.9 269.37 81.81 268.68C113.28 244.82 131.32 208.51 131.32 169.07V106.28V106.27Z" fill="url(#paint14_linear_620_959)"/>
<path d="M91.2298 169.07V128.46C91.2298 125.7 88.9898 123.46 86.2298 123.46C83.4698 123.46 81.2298 125.7 81.2298 128.46V169.07C81.2298 198.75 63.7498 225.86 36.7098 238.14C34.1998 239.28 33.0798 242.25 34.2198 244.76C35.0598 246.6 36.8698 247.69 38.7798 247.69C39.4698 247.69 40.1698 247.55 40.8398 247.24C71.4498 233.34 91.2298 202.66 91.2298 169.06V169.07Z" fill="url(#paint15_linear_620_959)"/>
<path d="M210.97 160.32C237.358 160.32 258.75 138.928 258.75 112.54C258.75 86.1518 237.358 64.76 210.97 64.76C184.582 64.76 163.19 86.1518 163.19 112.54C163.19 138.928 184.582 160.32 210.97 160.32Z" fill="#00C43C"/>
<path d="M207.59 136.61L179.96 108.98L190.83 98.11L207.59 114.87L232.37 90.09L243.24 100.96L207.59 136.61Z" fill="white"/>
</g>
<defs>
<linearGradient id="paint0_linear_620_959" x1="62.1702" y1="271.77" x2="204.59" y2="33.36" gradientUnits="userSpaceOnUse">
<stop stop-color="#EEE7C2"/>
<stop offset="1" stop-color="#C4A8FF"/>
</linearGradient>
<linearGradient id="paint1_linear_620_959" x1="126.42" y1="310.15" x2="268.84" y2="71.73" gradientUnits="userSpaceOnUse">
<stop stop-color="#EEE7C2"/>
<stop offset="1" stop-color="#C4A8FF"/>
</linearGradient>
<linearGradient id="paint2_linear_620_959" x1="-14.0801" y1="226.22" x2="128.34" y2="-12.19" gradientUnits="userSpaceOnUse">
<stop stop-color="#EEE7C2"/>
<stop offset="1" stop-color="#C4A8FF"/>
</linearGradient>
<linearGradient id="paint3_linear_620_959" x1="-38.51" y1="211.63" x2="103.91" y2="-26.79" gradientUnits="userSpaceOnUse">
<stop stop-color="#EEE7C2"/>
<stop offset="1" stop-color="#C4A8FF"/>
</linearGradient>
<linearGradient id="paint4_linear_620_959" x1="30.2498" y1="252.7" x2="172.67" y2="14.29" gradientUnits="userSpaceOnUse">
<stop stop-color="#EEE7C2"/>
<stop offset="1" stop-color="#C4A8FF"/>
</linearGradient>
<linearGradient id="paint5_linear_620_959" x1="55.6201" y1="267.86" x2="198.04" y2="29.44" gradientUnits="userSpaceOnUse">
<stop stop-color="#EEE7C2"/>
<stop offset="1" stop-color="#C4A8FF"/>
</linearGradient>
<linearGradient id="paint6_linear_620_959" x1="20.7701" y1="247.04" x2="163.19" y2="8.62002" gradientUnits="userSpaceOnUse">
<stop stop-color="#EEE7C2"/>
<stop offset="1" stop-color="#C4A8FF"/>
</linearGradient>
<linearGradient id="paint7_linear_620_959" x1="38.4202" y1="257.58" x2="180.84" y2="19.17" gradientUnits="userSpaceOnUse">
<stop stop-color="#EEE7C2"/>
<stop offset="1" stop-color="#C4A8FF"/>
</linearGradient>
<linearGradient id="paint8_linear_620_959" x1="93.7698" y1="290.65" x2="236.19" y2="52.23" gradientUnits="userSpaceOnUse">
<stop stop-color="#EEE7C2"/>
<stop offset="1" stop-color="#C4A8FF"/>
</linearGradient>
<linearGradient id="paint9_linear_620_959" x1="9.62984" y1="240.38" x2="152.04" y2="1.97" gradientUnits="userSpaceOnUse">
<stop stop-color="#EEE7C2"/>
<stop offset="1" stop-color="#C4A8FF"/>
</linearGradient>
<linearGradient id="paint10_linear_620_959" x1="97.8798" y1="293.1" x2="240.29" y2="54.68" gradientUnits="userSpaceOnUse">
<stop stop-color="#EEE7C2"/>
<stop offset="1" stop-color="#C4A8FF"/>
</linearGradient>
<linearGradient id="paint11_linear_620_959" x1="-27.7102" y1="218.08" x2="114.71" y2="-20.33" gradientUnits="userSpaceOnUse">
<stop stop-color="#EEE7C2"/>
<stop offset="1" stop-color="#C4A8FF"/>
</linearGradient>
<linearGradient id="paint12_linear_620_959" x1="14.8702" y1="243.52" x2="157.28" y2="5.10001" gradientUnits="userSpaceOnUse">
<stop stop-color="#EEE7C2"/>
<stop offset="1" stop-color="#C4A8FF"/>
</linearGradient>
<linearGradient id="paint13_linear_620_959" x1="118.33" y1="305.32" x2="260.75" y2="66.9" gradientUnits="userSpaceOnUse">
<stop stop-color="#EEE7C2"/>
<stop offset="1" stop-color="#C4A8FF"/>
</linearGradient>
<linearGradient id="paint14_linear_620_959" x1="41.75" y1="259.57" x2="184.17" y2="21.16" gradientUnits="userSpaceOnUse">
<stop stop-color="#EEE7C2"/>
<stop offset="1" stop-color="#C4A8FF"/>
</linearGradient>
<linearGradient id="paint15_linear_620_959" x1="30.6398" y1="252.94" x2="173.06" y2="14.52" gradientUnits="userSpaceOnUse">
<stop stop-color="#EEE7C2"/>
<stop offset="1" stop-color="#C4A8FF"/>
</linearGradient>
<clipPath id="clip0_620_959">
<rect width="258.75" height="273.45" fill="white"/>
</clipPath>
</defs>
</svg>
